PathFileType	4	(X/Y/Z)	markers.trc
DataRate	CameraRate	NumFrames	NumMarkers	Units	OrigDataRate	OrigDataStartFrame	OrigNumFrames
200	200	6	29	mm	200	70	185
Frame#	Time	RxCheec			LxCheec			C7			maxkif			RxShould			LxShould			RxElbow			LxElbow			RxWrist			LxWrist			Psis			RxAsis			LxAsis			RxThigh			LxThigh			RxLatCon			LxLatCon			RxFH			LxFH			RxShank			LxShank			RxLatMal			LxLatMal			RxHeel			LxHeel			RxToe1			LxToe1			RxMeta5			LxMeta5			
		X1	Y1	Z1	X2	Y2	Z2	X3	Y3	Z3	X4	Y4	Z4	X5	Y5	Z5	X6	Y6	Z6	X7	Y7	Z7	X8	Y8	Z8	X9	Y9	Z9	X10	Y10	Z10	X11	Y11	Z11	X12	Y12	Z12	X13	Y13	Z13	X14	Y14	Z14	X15	Y15	Z15	X16	Y16	Z16	X17	Y17	Z17	X18	Y18	Z18	X19	Y19	Z19	X20	Y20	Z20	X21	Y21	Z21	X22	Y22	Z22	X23	Y23	Z23	X24	Y24	Z24	X25	Y25	Z25	X26	Y26	Z26	X27	Y27	Z27	X28	Y28	Z28	X29	Y29	Z29

70	1.96	614.3182516098022	1633.8638067245483	285.7992649078369	609.5675826072693	1632.9065561294556	121.52928858995438	473.9314615726471	1556.8851232528687	215.2704894542694	381.40833377838135	1343.0814743041992	208.9856117963791	519.8301672935486	1532.6073169708252	360.92329025268555	495.7200884819031	1542.919397354126	53.22419852018356	490.4386103153229	1183.0811500549316	472.4039137363434	357.4602007865906	1223.9158153533936	-35.22839769721031	610.6154918670654	952.4868130683899	477.87970304489136	336.5325927734375	957.9559564590454	-49.80352148413658	403.60692143440247	1026.747226715088	205.86279034614563	591.5935039520264	1015.2565240859985	316.44824147224426	576.181948184967	1008.8437795639038	67.17616319656372	541.6687726974487	668.0176258087158	267.91149377822876	717.6279425621033	713.9490842819214	75.84188878536224	429.23709750175476	503.15308570861816	317.41777062416077	709.4824314117432	518.2717442512512	47.966305166482925	393.03284883499146	450.01569390296936	329.1695713996887	685.5714917182922	464.6911919116974	35.30425950884819	404.51759099960327	325.031578540802	250.33152103424072	759.3696117401123	332.59594440460205	82.85943418741226	283.798485994339	84.16029065847397	277.04042196273804	720.8167910575867	83.83990079164505	66.82594120502472	231.43060505390167	76.10828429460526	226.98679566383362	692.2748684883118	56.18227273225784	132.59607553482056	494.17877197265625	27.2870734333992	240.37371575832367	925.5714416503906	89.62465077638626	23.67537096142769	396.3909447193146	20.13961412012577	308.35244059562683	831.1076164245605	54.15686219930649	4.5896898955106735
71	1.965	622.4181652069092	1632.6948404312134	284.8408818244934	617.8007125854492	1631.56259059906	120.58966606855392	482.2198152542114	1555.4769039154053	214.18261528015137	389.65728878974915	1341.8272733688354	208.05779099464417	528.0155539512634	1531.4687490463257	359.8787784576416	504.14276123046875	1541.2216186523438	52.17405781149864	500.74446201324463	1182.0651292800903	472.32624888420105	364.6395802497864	1222.4457263946533	-34.50272977352142	623.4987378120422	952.7682065963745	477.72830724716187	339.77240324020386	956.9310545921326	-48.824772238731384	411.83608770370483	1025.0136852264404	204.94796335697174	599.1473197937012	1014.0396356582642	316.6041970252991	585.3240489959717	1007.4645280838013	67.33029335737228	548.1602549552917	666.9533252716064	268.36663484573364	724.9720692634583	711.4613056182861	77.0505741238594	433.7330758571625	502.943217754364	317.16227531433105	718.156635761261	516.7604684829712	47.6967953145504	396.8234956264496	450.1461386680603	328.7419080734253	695.2856779098511	462.9054665565491	34.67266261577606	407.5820744037628	324.94106888771057	250.05197525024414	773.6682295799255	333.034873008728	81.67465031147003	284.3230068683624	85.33315360546112	276.39830112457275	743.9775466918945	83.13389867544174	65.22440165281296	231.87516629695892	77.4809718132019	226.20412707328796	715.9788608551025	54.50025573372841	130.76123595237732	494.3448305130005	27.266966179013252	240.50098657608032	948.944628238678	95.05793452262878	23.64654652774334	396.2189257144928	20.23416757583618	308.1485331058502	855.7481169700623	56.84938281774521	3.56749608181417
72	1.97	630.5066347122192	1631.4997673034668	283.8713228702545	626.0364055633545	1630.2012205123901	119.63706463575363	490.48110842704773	1554.057240486145	213.06702494621277	397.9127109050751	1340.5423164367676	207.11225271224976	536.1914038658142	1530.3574800491333	358.80714654922485	512.5887393951416	1539.5249128341675	51.11069977283478	510.98698377609253	1181.079387664795	472.1440374851227	371.90738320350647	1220.96586227417	-33.825911581516266	636.2730264663696	953.0990123748779	477.5715470314026	343.1439697742462	955.965518951416	-47.86818102002144	420.08188366889954	1023.2447385787964	203.985795378685	606.7888140678406	1012.876033782959	316.79850816726685	594.5077538490295	1006.0501098632812	67.4768015742302	554.8255443572998	665.8441424369812	268.82296800613403	732.2469353675842	708.8303565979004	78.23783159255981	438.3750855922699	502.73334980010986	316.8763220310211	726.6708016395569	515.1550769805908	47.416191548109055	400.73758363723755	450.3055810928345	328.2804787158966	704.7407031059265	461.0694646835327	34.04943272471428	410.80671548843384	324.82874393463135	249.7963011264801	787.6348495483398	333.54341983795166	80.52947372198105	284.8629057407379	86.5996927022934	275.8326530456543	766.5146589279175	82.84994959831238	63.76366317272186	232.40739107131958	78.92686128616333	225.42019188404083	739.1647100448608	53.22178453207016	129.11413609981537	494.5206344127655	27.224140241742134	240.60092866420746	971.4345932006836	100.94943642616272	23.51057529449463	396.0435390472412	20.369501784443855	307.9178035259247	879.5675039291382	60.0506067276001	2.5582548696547747
73	1.975	638.5839581489563	1630.284309387207	282.8887403011322	634.273111820221	1628.830075263977	118.66723001003265	498.71572852134705	1552.6363849639893	211.9268923997879	406.17477893829346	1339.2302989959717	206.14367723464966	544.36194896698	1529.2739868164062	357.7101230621338	521.0564136505127	1537.8379821777344	50.03499984741211	521.1482048034668	1180.1228523254395	471.8576669692993	379.2651295661926	1219.4857597351074	-33.20871666073799	648.9344835281372	953.485369682312	477.4095416069031	346.6551601886749	955.062747001648	-46.93526029586792	428.358793258667	1021.460771560669	202.98197865486145	614.5417094230652	1011.772871017456	317.03564524650574	603.7383079528809	1004.6130418777466	67.61600077152252	561.6259574890137	664.7028923034668	269.28186416625977	739.456057548523	706.0573101043701	79.37266677618027	443.156898021698	502.5250315666199	316.5702819824219	735.0931763648987	513.4973526000977	47.11037129163742	404.7931730747223	450.4837095737457	327.79285311698914	714.036226272583	459.2238664627075	33.423278480768204	414.16090726852417	324.68539476394653	249.58045780658722	801.2686371803284	334.1251313686371	79.46064323186874	285.4042947292328	87.9398062825203	275.3421366214752	788.3325219154358	82.94303715229034	62.492530792951584	233.03091526031494	80.45090734958649	224.64866936206818	761.7568969726562	52.30661481618881	127.70552933216095	494.6998059749603	27.162861078977585	240.68275094032288	992.9545521736145	107.25865513086319	23.257890716195107	395.86690068244934	20.54564654827118	307.6590299606323	902.4569392204285	63.69147449731827	1.5975141432136297
74	1.98	646.650493144989	1629.0572881698608	281.8909287452698	642.5096392631531	1627.4594068527222	117.67753958702087	506.92713260650635	1551.2237548828125	210.76422929763794	414.4461750984192	1337.8957509994507	205.14638721942902	552.530825138092	1528.2167196273804	356.5892279148102	529.5426845550537	1536.1682176589966	48.94498363137245	531.21018409729	1179.1938543319702	471.4725911617279	386.7132067680359	1218.0161476135254	-32.65868499875069	661.4773273468018	953.9311528205872	477.24008560180664	350.3182530403137	954.2232751846313	-46.03405296802521	436.6903305053711	1019.6826457977295	201.9423246383667	622.4085092544556	1010.7266902923584	317.3155188560486	613.0231022834778	1003.1673908233643	67.74993985891342	568.520724773407	663.5431051254272	269.74353194236755	746.5676665306091	703.1217813491821	80.41499555110931	448.0757713317871	502.3157596588135	316.25083088874817	743.5044646263123	511.8383765220642	46.76227271556854	409.00954604148865	450.666218996048	327.2872567176819	723.2921719551086	457.4202597141266	32.78089314699173	417.61139035224915	324.5026767253876	249.4199573993683	814.569354057312	334.7732424736023	78.50353419780731	285.94356775283813	89.33351188898087	274.912565946579	809.3340992927551	83.3490788936615	61.45522743463516	233.73664915561676	82.05999433994293	223.90593588352203	783.6493849754333	51.71238258481026	126.57804787158966	494.8751628398895	27.09142677485943	240.75809121131897	1013.4338140487671	113.87716233730316	22.91795052587986	395.6892192363739	20.75231820344925	307.3722720146179	924.3229031562805	67.65171140432358	0.7398359593935311
75	1.9849999999999999	654.7062397003174	1627.8313398361206	280.8760106563568	650.7450342178345	1626.1018514633179	116.66763573884964	515.1207447052002	1549.828052520752	209.57952737808228	422.73247241973877	1336.5448713302612	204.11653816699982	560.7004165649414	1527.185320854187	355.44559359550476	538.0441546440125	1534.520983695984	47.83569648861885	541.1590933799744	1178.29167842865	470.99706530570984	394.2500948905945	1216.566801071167	-32.18024596571922	673.8919019699097	954.4375538825989	477.05864906311035	354.1501462459564	953.4445405006409	-45.17941549420357	445.1066851615906	1017.9308652877808	200.8713334798813	630.3709149360657	1009.7231864929199	317.6336884498596	622.3706603050232	1001.7274618148804	67.8807944059372	575.4746198654175	662.3744964599609	270.20594477653503	753.537654876709	699.994146823883	81.31992816925049	453.13429832458496	502.0987391471863	315.92029333114624	751.9829273223877	510.2335214614868	46.35801538825035	413.4046733379364	450.837641954422	326.7720341682434	732.6239347457886	455.712229013443	32.112304121255875	421.13083600997925	324.2759108543396	249.3257373571396	827.5348544120789	335.4681134223938	77.6880756020546	286.49038076400757	90.7658040523529	274.526983499527	829.4291496276855	83.98814499378204	60.68331375718117	234.50620472431183	83.76172184944153	223.21248054504395	804.7041893005371	51.398519426584244	125.75763463973999	495.0399398803711	27.01922319829464	240.83662033081055	1032.8247547149658	120.62923610210419	22.557957097887993	395.50867676734924	20.968670025467873	307.05949664115906	945.0960159301758	71.76407426595688	0.05095793676446192
